<?xml version="1.0" standalone="no"?>
<!DOCTYPE svg PUBLIC "-//W3C//DTD SVG 20010904//EN"
 "http://www.w3.org/TR/2001/REC-SVG-20010904/DTD/svg10.dtd">
<svg version="1.0" xmlns="http://www.w3.org/2000/svg"
 width="700.000000pt" height="700.000000pt" viewBox="0 0 700.000000 700.000000"
 preserveAspectRatio="xMidYMid meet">
<metadata>
Created by potrace 1.11, written by Peter Selinger 2001-2013
</metadata>
<g transform="translate(0.000000,700.000000) scale(0.100000,-0.100000)"
fill="#000000" stroke="none">
<path d="M1910 6373 c-872 -310 -1588 -568 -1593 -572 -8 -8 467 -4167 480
-4209 6 -19 296 -184 1360 -772 l1352 -749 1348 746 c741 410 1351 749 1355
752 6 5 477 4049 490 4205 l3 30 -1590 567 c-874 312 -1597 568 -1605 568 -8
0 -728 -255 -1600 -566z m1565 -1450 c22 -12 54 -36 72 -55 65 -67 63 -47 63
-701 l0 -593 -26 -52 c-25 -51 -74 -97 -127 -120 -21 -9 -181 -12 -623 -12
-656 0 -635 -2 -702 63 -19 18 -43 50 -55 72 -22 40 -22 47 -25 624 -3 662 -4
649 73 726 75 76 56 74 720 72 584 -2 590 -2 630 -24z m628 16 c47 -21 60 -80
26 -123 -20 -25 -23 -26 -134 -26 -62 0 -121 3 -130 6 -24 10 -46 60 -39 89
13 51 47 65 155 65 54 0 109 -5 122 -11z m571 -3 c62 -19 109 -56 143 -114 26
-44 28 -56 31 -179 4 -130 4 -132 -22 -157 -30 -31 -74 -34 -107 -7 -22 18
-24 28 -29 140 -7 164 -8 165 -170 169 -115 4 -121 5 -140 29 -34 43 -23 93
25 121 29 16 212 15 269 -2z m129 -697 c14 -6 30 -22 36 -36 14 -31 14 -205 0
-237 -23 -50 -103 -57 -134 -13 -18 26 -21 227 -4 258 18 34 62 46 102 28z
m22 -554 c24 -23 25 -31 25 -133 0 -95 -3 -113 -21 -136 -27 -34 -82 -36 -116
-4 -21 20 -23 29 -23 135 0 108 1 115 25 138 15 16 36 25 55 25 19 0 40 -9 55
-25z m-763 -632 l298 -298 0 163 c0 160 0 163 25 187 15 16 36 25 55 25 19 0
40 -9 55 -25 l25 -24 0 -276 0 -276 -25 -24 -24 -25 -276 0 -276 0 -24 25
c-33 32 -33 78 0 110 24 25 27 25 187 25 l163 0 -298 298 c-268 268 -297 301
-297 330 0 22 9 41 25 57 16 16 35 25 57 25 29 0 62 -29 330 -297z m-1869 95
c14 -17 17 -40 17 -138 0 -116 -1 -119 -26 -139 -45 -35 -95 -26 -119 20 -22
41 -21 216 1 247 32 46 93 50 127 10z m2635 -5 c22 -25 23 -32 20 -140 -3
-107 -5 -116 -27 -134 -32 -26 -77 -24 -106 6 -24 23 -25 30 -25 138 0 75 4
118 13 129 35 44 86 45 125 1z m-2644 -524 c25 -20 26 -25 26 -118 0 -172 18
-191 181 -191 92 0 105 -2 126 -22 32 -30 31 -81 -2 -113 -23 -24 -30 -25
-142 -25 -167 1 -233 30 -290 128 -25 42 -28 58 -32 160 -2 61 0 123 3 137 16
62 80 84 130 44z m2642 -5 c26 -25 26 -27 22 -157 -4 -142 -13 -172 -67 -230
-54 -59 -94 -71 -238 -75 -130 -4 -132 -4 -157 22 -31 30 -34 74 -7 107 18 22
28 24 140 29 163 7 164 8 171 171 5 112 7 122 29 140 33 27 77 24 107 -7z
m-1779 -319 c41 -29 38 -98 -6 -132 -17 -13 -215 -18 -246 -7 -19 8 -45 55
-45 84 0 11 11 32 25 45 23 24 30 25 137 25 85 0 119 -4 135 -15z m540 -7 c32
-30 31 -81 -2 -113 -23 -24 -31 -25 -135 -25 -104 0 -112 1 -135 25 -32 31
-33 80 -3 112 20 21 29 23 137 23 104 0 117 -2 138 -22z m540 -4 c21 -21 24
-32 19 -62 -9 -62 -32 -72 -156 -72 -92 0 -111 3 -133 20 -44 35 -43 93 2 127
10 8 56 12 129 13 108 0 114 -1 139 -26z"/>
<path d="M2263 4776 c-23 -11 -35 -25 -43 -53 -8 -27 -10 -201 -8 -581 l3
-544 28 -24 28 -24 565 0 565 0 24 25 25 24 0 565 0 565 -24 28 -24 28 -554 2
c-457 2 -559 0 -585 -11z"/>
</g>
</svg>
